HIERARCHY
ROOT Bip001_Pelvis
{
  OFFSET 7.937 94.8971 -8.5489
  CHANNELS 6 Xposition Yposition Zposition Zrotation Xrotation Yrotation
  JOINT Bip001_Spine
  {
    OFFSET 1.44608e-005 10.4157 -0.0118244
    CHANNELS 3 Zrotation Xrotation Yrotation
    JOINT Bip001_L_Thigh
    {
      OFFSET 11.2582 -10.4157 0.0118432
      CHANNELS 3 Zrotation Xrotation Yrotation
      JOINT Bip001_L_Calf
      {
        OFFSET -0.720717 -44.8687 0.366937
        CHANNELS 3 Zrotation Xrotation Yrotation
        JOINT Bip001_L_Foot
        {
          OFFSET -0.664439 -41.3745 -3.62995
          CHANNELS 3 Zrotation Xrotation Yrotation
          JOINT Bip001_L_Toe0
          {
            OFFSET 0.0541047 -10.4146 13.4033
            CHANNELS 3 Zrotation Xrotation Yrotation
            End Site
            {
              OFFSET -1.04503e-005 0 7.70137
            }
          }
        }
      }
    }
    JOINT Bip001_R_Thigh
    {
      OFFSET -11.2582 -10.4156 0.0118122
      CHANNELS 3 Zrotation Xrotation Yrotation
      JOINT Bip001_R_Calf
      {
        OFFSET 0.72059 -44.8687 0.36676
        CHANNELS 3 Zrotation Xrotation Yrotation
        JOINT Bip001_R_Foot
        {
          OFFSET 0.664321 -41.3745 -3.62979
          CHANNELS 3 Zrotation Xrotation Yrotation
          JOINT Bip001_R_Toe0
          {
            OFFSET -0.05417 -10.4146 13.4033
            CHANNELS 3 Zrotation Xrotation Yrotation
            End Site
            {
              OFFSET -1.04873e-005 0 7.70137
            }
          }
        }
      }
    }
    JOINT Bip001_Spine1
    {
      OFFSET 1.90638e-005 14.8539 1.10727
      CHANNELS 3 Zrotation Xrotation Yrotation
      JOINT Bip001_Spine2
      {
        OFFSET 2.28934e-005 14.7848 -1.7233
        CHANNELS 3 Zrotation Xrotation Yrotation
        JOINT Bip001_Neck
        {
          OFFSET 2.24514e-005 15.6905 -0.498826
          CHANNELS 3 Zrotation Xrotation Yrotation
          JOINT Bip001_L_Clavicle
          {
            OFFSET 6.17691 -0.000591152 0.00852867
            CHANNELS 3 Zrotation Xrotation Yrotation
            JOINT Bip001_L_UpperArm
            {
              OFFSET 11.773 -0.0611878 0.00197697
              CHANNELS 3 Zrotation Xrotation Yrotation
              JOINT Bip001_L_Forearm
              {
                OFFSET 26.4515 0.0817568 -2.19579
                CHANNELS 3 Zrotation Xrotation Yrotation
                JOINT Bip001_L_Hand
                {
                  OFFSET 32.8677 0.156744 1.67112
                  CHANNELS 3 Zrotation Xrotation Yrotation
                  JOINT Bip001_L_Finger0
                  {
                    OFFSET 6.16268 -2.25226 6.01674
                    CHANNELS 3 Zrotation Xrotation Yrotation
                    End Site
                    {
                      OFFSET 4.30499 -1.46662 0.618148
                    }
                  }
                  JOINT Bip001_L_Finger1
                  {
                    OFFSET 11.2957 -0.718374 -0.201963
                    CHANNELS 3 Zrotation Xrotation Yrotation
                    End Site
                    {
                      OFFSET 6.31952 -0.405163 -0.0802303
                    }
                  }
                }
              }
            }
          }
          JOINT Bip001_R_Clavicle
          {
            OFFSET -6.17691 -0.000574027 0.00851165
            CHANNELS 3 Zrotation Xrotation Yrotation
            JOINT Bip001_R_UpperArm
            {
              OFFSET -11.773 -0.0611516 0.00194365
              CHANNELS 3 Zrotation Xrotation Yrotation
              JOINT Bip001_R_Forearm
              {
                OFFSET -26.4514 0.0822334 -2.19736
                CHANNELS 3 Zrotation Xrotation Yrotation
                JOINT Bip001_R_Hand
                {
                  OFFSET -32.8677 0.156817 1.67144
                  CHANNELS 3 Zrotation Xrotation Yrotation
                  JOINT Bip001_R_Finger0
                  {
                    OFFSET -6.1627 -2.25224 6.0167
                    CHANNELS 3 Zrotation Xrotation Yrotation
                    End Site
                    {
                      OFFSET -4.30499 -1.46662 0.618134
                    }
                  }
                  JOINT Bip001_R_Finger1
                  {
                    OFFSET -11.2958 -0.718344 -0.201994
                    CHANNELS 3 Zrotation Xrotation Yrotation
                    End Site
                    {
                      OFFSET -6.31952 -0.405146 -0.0802475
                    }
                  }
                }
              }
            }
          }
          JOINT Bip001_Head
          {
            OFFSET 1.11782e-005 11.4912 2.09908
            CHANNELS 3 Zrotation Xrotation Yrotation
            End Site
            {
              OFFSET 2.95144e-005 21.2823 -2.83069e-005
            }
          }
        }
      }
    }
  }
}
MOTION
Frames:	12
Frame Time:	0.04
7.00634 95.5527 -7.5317 0.222565 -0.690499 9.56936 -0.486586 0.711664 0.461182 5.6589 -8.76172 7.81564 -0.319542 14.0998 -6.14948 -3.11032 -4.72424 -2.45411 0.559881 -9.94426 -0.0269535 -7.12632 -2.81496 -4.13413 0.298348 13.7599 -0.448486 0.815953 -9.18427 -11.9208 -0.850218 -11.446 0.209542 -1.10422 1.40974 0.926609 -1.10422 1.40974 0.926607 -0.904128 -2.78639 -3.10622 -29.0438 7.3269 -9.73938 -51.7645 39.3118 8.98871 13.5413 3.18658 -25.6493 -4.40133 -0.305778 -0.881539 -3.18055e-015 3.18055e-015 -0 8.82782e-032 3.18056e-015 -1.59028e-015 32.8785 11.8998 17.5576 57.285 47.2166 -19.3723 8.47742 -38.6916 30.3806 8.61347 0.26126 -32.3934 1.76556e-031 6.36111e-015 -1.59028e-015 1.59028e-015 3.18056e-015 -6.36111e-015 0.0279182 0.78931 -3.27397 
6.96018 95.55 -7.59156 0.21876 -0.666849 9.71983 -0.509735 0.711667 0.439539 5.70866 -8.86848 7.62458 -0.35403 14.111 -6.1206 -3.13299 -4.65263 -2.41065 0.576279 -9.94426 -0.0276348 -7.07732 -2.8709 -3.84149 0.39094 13.8031 -0.64724 0.773139 -9.21113 -12.1435 -0.886091 -11.4283 0.192387 -1.15727 1.41264 0.884117 -1.15728 1.41264 0.884119 -0.860088 -2.71827 -3.03803 -29.0978 7.20506 -9.56719 -51.8048 39.6619 9.26917 13.4057 2.64941 -25.6667 -4.2114 -0.349719 -0.685725 1.59028e-015 3.18055e-015 -1.59028e-015 1.59028e-015 3.18056e-015 -1.59028e-015 32.7106 11.7648 17.5217 55.2947 45.632 -19.0245 9.41678 -36.3154 37.3538 7.19799 0.175494 -27.8411 -1.76556e-031 -3.18055e-015 -3.18055e-015 -7.95139e-016 -9.54167e-015 -1.59028e-015 0.0607562 0.818293 -3.20409 
6.88798 95.5574 -7.65419 0.163729 -0.699433 9.77038 -0.490576 0.723369 0.480884 5.83953 -8.92785 7.45696 -0.501445 14.1375 -5.85977 -3.12118 -4.58554 -2.53224 0.571061 -9.94425 -0.0599564 -6.99615 -2.86508 -3.32288 0.544949 13.7286 -0.986864 0.702205 -9.14828 -12.4161 -0.915184 -11.4157 0.170449 -1.11648 1.44205 0.966281 -1.11648 1.44205 0.966282 -1.04158 -2.7405 -2.98049 -29.0629 7.27405 -9.58988 -51.5888 39.6572 8.98819 13.2503 3.02825 -25.045 -4.46299 -0.364432 -0.69431 2.64834e-031 -9.54166e-015 1.59028e-015 1.59028e-015 -9.54167e-015 -0 32.639 11.6851 17.4368 52.6006 43.5068 -17.8906 8.98088 -31.8333 44.8832 5.08812 1.06378 -26.6744 -4.47265e-016 -9.54166e-015 -1.09332e-015 1.49088e-016 -6.36111e-015 -7.95139e-016 -0.00120342 0.932066 -3.1822 
6.92752 95.566 -7.59389 0.323789 -0.902553 9.68299 -0.530495 0.782734 0.553581 5.67017 -8.59631 7.0528 -0.499588 13.8872 -5.64366 -3.14976 -4.52695 -2.3666 0.574677 -9.94425 -0.0475246 -7.17497 -2.67967 -3.66734 0.60448 13.7805 -0.75991 0.688994 -9.21582 -12.2759 -0.927337 -11.404 0.181324 -1.19949 1.55966 1.11336 -1.19948 1.55965 1.11336 -1.05354 -2.66766 -2.92658 -28.9516 7.24602 -9.72273 -51.6161 39.8452 8.88386 13.2432 3.25195 -24.5106 -4.77587 -0.416645 -0.644219 -3.18055e-015 6.36111e-015 1.59028e-015 -1.59028e-015 6.36111e-015 -1.59028e-015 32.3879 11.5932 17.5952 49.524 41.4067 -15.5662 4.11357 -25.0542 50.5229 3.67012 2.31262 -25.9345 -1.59028e-015 9.54166e-015 7.95139e-016 0 9.54167e-015 -0 -0.0455813 0.969168 -3.12385 
6.90158 95.5601 -7.62206 0.374565 -1.09189 9.89987 -0.543511 0.823553 0.568109 5.61048 -8.52779 6.72317 -0.440891 13.9082 -5.56997 -3.1782 -4.50155 -2.37468 0.553709 -9.94426 -0.0375077 -7.21584 -2.51229 -4.10883 0.632443 13.8457 -0.587511 0.670335 -9.26951 -12.2288 -0.951529 -11.4103 0.193478 -1.22925 1.64098 1.14349 -1.22925 1.64098 1.14349 -1.26771 -2.4712 -2.82868 -28.7754 7.13452 -9.88871 -51.283 39.8059 8.56438 13.0328 3.63571 -23.9566 -5.02958 -0.425424 -0.676047 1.76556e-031 -6.36111e-015 1.59028e-015 3.53113e-031 -6.36111e-015 3.18055e-015 32.2243 11.4042 17.9175 45.9258 38.5149 -12.0066 -3.61641 -17.0277 55.3379 1.64983 3.50627 -22.8035 -0 -3.18055e-015 -0 3.18055e-015 -3.18056e-015 -0 0.172331 0.904497 -3.14109 
6.8769 95.5571 -7.60694 0.347023 -1.42241 10.2537 -0.539639 0.897773 0.577447 5.66063 -8.43991 6.01423 -0.51734 14.0754 -5.274 -3.18428 -4.54259 -2.32153 0.550517 -9.95229 -0.0556836 -7.15056 -2.08635 -4.81928 0.609687 13.6896 -0.222791 0.581594 -9.22806 -12.1941 -0.916434 -11.4183 0.17141 -1.20873 1.78941 1.16394 -1.20873 1.78941 1.16395 -1.4323 -2.63099 -2.83728 -28.726 7.2762 -9.75388 -51.0544 40.0308 8.52915 12.826 3.26426 -23.8044 -4.9241 -0.385543 -0.819259 -3.18055e-015 -3.18055e-015 -0 -3.18055e-015 -3.18056e-015 -0 32.0958 11.5291 17.9802 41.2025 33.2203 -6.83829 -10.6576 -8.64147 61.0019 -1.25138 3.39666 -17.1149 -6.36111e-015 -1.59028e-015 3.18055e-015 -3.18055e-015 0 1.59028e-015 0.248523 1.0163 -3.20852 
6.83025 95.549 -7.6108 0.297073 -1.69972 10.7099 -0.529883 0.962461 0.581287 5.71733 -8.45165 5.50697 -0.485939 14.2785 -5.23803 -3.22798 -4.58324 -2.34272 0.552521 -9.95364 -0.0469531 -7.03538 -1.71416 -5.40426 0.603536 13.5585 -0.0357127 0.497864 -9.20089 -12.2238 -0.886338 -11.4167 0.159315 -1.19707 1.91879 1.17315 -1.19707 1.9188 1.17315 -1.49623 -2.77652 -2.90344 -28.6394 7.37819 -9.64941 -50.9718 39.8207 8.4908 12.8375 3.21548 -23.8267 -4.89219 -0.412172 -0.683735 -8.82781e-032 3.18055e-015 1.59028e-015 1.59028e-015 -3.18056e-015 -0 31.9011 11.7133 18.1883 36.4571 28.3762 -0.52935 -17.391 -1.96399 66.8689 -5.57179 4.00451 -12.9656 -3.18055e-015 -1.59028e-015 1.59028e-015 -9.54166e-015 1.19271e-015 5.1684e-015 0.238303 1.03205 -3.28509 
6.67418 95.5624 -7.90637 0.0891469 -0.715928 9.45479 -0.551421 0.763011 0.929787 6.01198 -9.1565 6.48726 -0.60666 14.1506 -5.09904 -3.24873 -4.44849 -2.43591 0.550794 -9.95611 -0.0686541 -6.83855 -3.21337 -3.04642 0.830146 13.9179 -0.935439 0.375775 -9.05103 -12.8965 -0.922003 -11.3915 0.101456 -1.24431 1.51594 1.86483 -1.24431 1.51593 1.86482 -1.56359 -2.82483 -2.92389 -28.5022 7.43677 -9.69295 -50.846 39.6336 8.40613 12.8038 3.09816 -23.9524 -4.91622 -0.447691 -0.70145 -3.18055e-015 6.36111e-015 3.18055e-015 -3.18055e-015 6.36111e-015 1.59028e-015 31.2776 11.81 18.7613 33.3648 24.2799 4.72522 -24.3255 0.839019 73.7633 -10.113 5.81752 -10.1787 -6.36111e-015 -3.18055e-015 -9.54166e-015 0 0 -6.36111e-015 0.273552 0.97926 -3.33052 
6.65614 95.5698 -7.90515 0.0771077 -0.834645 9.56128 -0.542572 0.79522 1.00946 6.00612 -9.10677 6.74366 -0.44495 14.1559 -5.13297 -3.32931 -4.40439 -2.83649 0.545483 -9.96696 -0.111608 -6.81364 -3.04438 -3.31436 0.822916 13.8093 -0.879058 0.359661 -9.0069 -12.8688 -0.919753 -11.3945 0.110663 -1.22806 1.58162 2.02485 -1.22806 1.58163 2.02486 -1.79277 -2.95015 -2.89037 -28.3632 7.60624 -9.71925 -50.6415 39.6394 8.30421 12.8343 3.00621 -24.0318 -4.81676 -0.437989 -0.602221 -1.76556e-031 -6.36111e-015 -1.59028e-015 -1.59028e-015 -3.18056e-015 -1.59028e-015 30.1755 11.8751 19.5271 30.7694 20.7273 11.4379 -32.6219 3.19631 78.0093 -16.0432 8.5385 -8.56765 4.77083e-015 7.95139e-016 6.36111e-015 6.36111e-015 3.18056e-015 6.36111e-015 0.449349 1.1521 -3.39746 
6.61418 95.5749 -7.92422 -0.0112508 -0.799883 9.59435 -0.536381 0.795615 1.11228 6.09598 -9.237 6.85388 -0.397532 14.2451 -5.09792 -3.37129 -4.39549 -3.08282 0.539953 -9.97293 -0.152632 -6.69464 -3.04762 -3.34633 0.802469 13.6974 -0.871472 0.296156 -8.9266 -12.9754 -0.888434 -11.3972 0.0874719 -1.21219 1.58342 2.23041 -1.21195 1.58343 2.23044 -1.81732 -3.01578 -2.94566 -28.3715 7.68339 -9.75489 -50.4328 39.6768 8.19841 12.8298 2.8681 -24.1461 -4.71128 -0.39777 -0.638349 -3.18055e-015 1.27222e-014 -0 -1.59028e-015 1.59028e-014 -1.59028e-015 28.5653 11.8874 20.5699 28.3773 17.9635 18.4824 -41.5023 4.13691 80.6352 -21.7723 10.7153 -7.6349 3.97569e-015 -3.18055e-015 -9.54166e-015 3.18055e-015 -1.59028e-015 -6.36111e-015 0.494406 1.18102 -3.4669 
6.61316 95.5804 -7.90926 -0.0331549 -0.796605 9.59412 -0.52943 0.796307 1.22188 6.09499 -9.23451 6.76052 -0.398148 14.2194 -5.34146 -3.3517 -4.414 -2.87623 0.541758 -9.97233 -0.130087 -6.66356 -2.99876 -3.32665 0.823486 13.614 -0.840088 0.225429 -8.87567 -13.1223 -0.85178 -11.4 0.0622809 -1.20876 1.60894 2.45123 -1.20876 1.60894 2.45123 -1.95287 -3.17597 -3.0188 -28.3175 7.80663 -9.62058 -50.1622 39.6672 7.98493 12.8195 2.88899 -24.1933 -4.81718 -0.402832 -0.606128 -1.59028e-015 6.36111e-015 1.59028e-015 1.59028e-015 6.36111e-015 -1.59028e-015 26.9347 11.9803 21.7412 26.2988 15.7047 25.817 -49.3912 4.30868 81.5127 -27.0478 11.4186 -7.21617 -6.36111e-015 0 3.18055e-015 -7.95139e-015 0 3.18055e-015 0.66847 1.22814 -3.6109 
6.62542 95.5867 -7.8636 -0.093391 -0.758722 9.59065 -0.523082 0.797162 1.35391 6.10574 -9.30836 6.004 -0.500905 14.3007 -4.32315 -3.41572 -4.44842 -3.19133 0.5331 -9.99097 -0.194254 -6.60289 -2.93899 -3.32002 0.833635 13.4703 -0.908225 0.161801 -8.79856 -13.197 -0.789717 -11.4119 0.0636167 -1.19317 1.60321 2.71568 -1.19318 1.60321 2.71569 -1.97238 -3.29535 -3.14205 -28.3526 7.92139 -9.63115 -49.9129 39.61 7.8086 12.7178 2.77617 -24.2214 -4.81751 -0.489551 -0.0570848 1.59028e-015 0 1.59028e-015 -0 0 1.59028e-015 24.7964 11.9213 23.0312 24.5595 13.4508 32.042 -53.2944 4.37975 81.7628 -32.1103 13.7296 -6.91314 -6.36111e-015 0 -0 -3.18055e-015 0 -6.36111e-015 0.70272 1.2103 -3.74087 
